<svg width="70" height="70" viewBox="0 0 70 70" fill="none" xmlns="http://www.w3.org/2000/svg">
<path d="M59.8384 14.6898V14.683L58.3231 14.526C57.8296 8.60422 56.5369 0 53.0358 0C52.6745 0 52.3505 0.102847 52.0309 0.278915L43.5394 3.11166C40.744 4.04427 37.8378 4.51611 34.8899 4.51611H23.7092C13.749 4.51611 5.64478 12.6203 5.64478 22.5806C5.64478 30.6903 11.0179 37.5673 18.3915 39.8434L12.0105 45.1611H1.12891V47.4192H12.8279L19.4564 41.8948L26.4394 43.8899L28.8147 46.8592C29.1298 47.252 29.2675 47.7431 29.2054 48.2434C29.1411 48.7425 28.8858 49.184 28.4828 49.4853C27.7535 50.0318 26.7171 49.9571 26.0723 49.3148L23.7928 47.0365L17.3585 52.1836L18.7697 53.9472L21.4512 51.8021V60.9675H13.8145L11.5564 59.8384H1.12891V62.0964H11.0237L13.2817 63.2256H21.4514V64.3547C21.4514 67.4674 23.9838 70 27.0967 70C30.2095 70 32.7419 67.4676 32.7419 64.3547V63.2256C34.6093 63.2256 36.1292 61.706 36.1292 59.8384C36.1292 58.9679 35.7893 58.181 35.2486 57.5803C35.7905 56.9796 36.1292 56.1927 36.1292 55.3223C36.1292 54.4518 35.7893 53.6649 35.2486 53.0642C35.7905 52.4635 36.1292 51.6766 36.1292 50.8062C36.1292 49.9357 35.7893 49.1488 35.2486 48.5481C35.7905 47.9474 36.1292 47.1605 36.1292 46.29C36.1292 44.4227 34.6096 42.9028 32.7419 42.9028V40.6448H34.8894C37.8373 40.6448 40.7503 41.1166 43.5469 42.0492L52.0451 44.882C52.3648 45.058 52.7034 45.1609 53.0647 45.1609C56.5658 45.1609 57.8303 36.5567 58.3236 30.6349L59.8389 30.4779V30.4711C62.0969 30.3435 63.1141 26.4483 63.1141 22.5803C63.1141 18.7124 62.0964 14.8174 59.8384 14.6898ZM49.9005 29.2136C49.7606 27.2005 49.677 24.9887 49.677 22.5806C49.677 20.1725 49.7606 17.9606 49.9005 15.9475L57.4548 16.7029C56.773 18.2225 56.4512 20.4049 56.4512 22.5806C56.4512 24.7562 56.773 26.9387 57.4548 28.4583L49.9005 29.2136ZM56.0933 14.2969L50.0913 13.6962C50.7337 7.16484 51.9847 3.21764 52.8224 2.3992L53.1114 2.30334C53.8297 2.76169 55.3719 6.1872 56.0933 14.2969ZM29.8377 51.2917C30.4056 50.8661 30.8245 50.3061 31.1034 49.6772H32.7417C33.3648 49.6772 33.8709 50.1843 33.8709 50.8064C33.8709 51.4285 33.365 51.9355 32.7417 51.9355H28.5474C29.0021 51.8009 29.4402 51.5887 29.8377 51.2917ZM33.8706 55.3225C33.8706 55.9446 33.3648 56.4517 32.7415 56.4517H28.2253C27.602 56.4517 27.0962 55.9446 27.0962 55.3225C27.0962 54.7004 27.602 54.1934 28.2253 54.1934H32.7415C33.3648 54.1934 33.8706 54.7004 33.8706 55.3225ZM30.4836 64.3547C30.4836 66.2221 28.9641 67.7419 27.0964 67.7419C25.2288 67.7419 23.7092 66.2224 23.7092 64.3547V50.1448L24.4759 50.9102C24.6023 51.0379 24.7435 51.1417 24.8834 51.2489C24.9759 51.9432 25.2717 52.5688 25.7199 53.0645C25.178 53.6652 24.8393 54.452 24.8393 55.3225C24.8393 56.193 25.1792 56.9799 25.7199 57.5806C25.178 58.1813 24.8393 58.9682 24.8393 59.8386C24.8393 61.706 26.3589 63.2258 28.2266 63.2258H30.4846V64.3547H30.4836ZM32.7417 60.9675H28.2256C27.6022 60.9675 27.0964 60.4605 27.0964 59.8384C27.0964 59.2162 27.6022 58.7092 28.2256 58.7092H32.7417C33.3648 58.7092 33.8709 59.2162 33.8709 59.8384C33.8709 60.4605 33.3648 60.9675 32.7417 60.9675ZM33.8706 46.2903C33.8706 46.9124 33.3648 47.4194 32.7415 47.4194H31.4172C31.3144 46.707 31.0412 46.0273 30.5783 45.4482L30.349 45.1614H32.7415C33.3648 45.1611 33.8706 45.6681 33.8706 46.2903ZM30.4836 42.9031H28.5428L27.7535 41.9163L23.2172 40.6202C23.3819 40.6248 23.5435 40.645 23.7095 40.645H30.4836V42.9031ZM34.889 38.387H23.7095C14.9935 38.387 7.90308 31.2965 7.90308 22.5806C7.90308 13.8646 14.9933 6.77417 23.7095 6.77417H34.8902C38.0808 6.77417 41.233 6.26283 44.261 5.25338L49.843 3.39275C47.9948 8.11648 47.419 16.7503 47.419 22.5806C47.419 28.4108 47.9948 37.0447 49.843 41.7684L44.261 39.9077C41.233 38.8983 38.0808 38.387 34.889 38.387ZM53.1545 42.8725L52.9423 42.8014C52.0593 42.1128 50.7532 38.1475 50.0927 31.4637L56.0935 30.863C55.3639 39.0655 53.7991 42.4763 53.1545 42.8725ZM59.8384 28.123C59.4207 27.5924 58.7092 25.7002 58.7092 22.5806C58.7092 19.461 59.4205 17.5688 59.8384 17.0382C60.256 17.5688 60.9675 19.461 60.9675 22.5806C60.9675 25.7002 60.256 27.5924 59.8384 28.123Z" fill="#525457"/>
<path d="M68.8696 21.4512H65.4824V23.7092H68.8696V21.4512Z" fill="#333333"/>
<path d="M67.3807 7.95932L63.9941 9.08887L64.7086 11.2309L68.0951 10.1013L67.3807 7.95932Z" fill="#333333"/>
<path d="M64.7101 33.9271L63.9961 36.0693L67.383 37.1982L68.097 35.056L64.7101 33.9271Z" fill="#333333"/>
<path d="M35.0005 4.51562H30.4844V40.6445H35.0005V4.51562Z" fill="#FFC100"/>
</svg>
