<svg width="70" height="70" viewBox="0 0 70 70" fill="none" xmlns="http://www.w3.org/2000/svg">
<path d="M60.1562 28.4199L53.8956 39.3749H56.875C56.875 52.0406 46.5708 62.3437 33.9062 62.3437C22.5006 62.3437 12.7192 53.831 11.1541 42.5435L11.1016 42.164L10.8828 41.9562C10.7166 42.0787 10.5547 42.2099 10.4059 42.3598L9.95422 42.8115L5.31344 38.1707C5.31344 38.1707 5.95547 37.5035 6.05609 37.3755L4.375 38.2812V39.3749C4.375 55.6587 17.6225 68.9062 33.9062 68.9062C50.19 68.9062 63.4375 55.6587 63.4375 39.3749H66.4169L60.1562 28.4199Z" fill="#F0BC5E"/>
<path d="M60.1562 28.4199L53.8956 39.3749H56.875C56.875 52.0406 46.5708 62.3437 33.9062 62.3437C22.5006 62.3437 12.7192 53.831 11.1541 42.5435L11.1016 42.164L10.8828 41.9562C10.7166 42.0787 10.5547 42.2099 10.4059 42.3598L9.95422 42.8115L5.31344 38.1707C5.31344 38.1707 5.95547 37.5035 6.05609 37.3755L4.375 38.2812V39.3749C4.375 55.6587 17.6225 68.9062 33.9062 68.9062C50.19 68.9062 63.4375 55.6587 63.4375 39.3749H66.4169L60.1562 28.4199Z" fill="#FFC100"/>
<path d="M39.375 61.658C40.1198 61.4753 40.8483 61.2566 41.5625 61.0028V49.2188H39.375V61.658Z" fill="#525457"/>
<path d="M17.5 55.4039C18.1847 56.1017 18.9208 56.7448 19.6875 57.3519V49.2188H17.5V55.4039Z" fill="#525457"/>
<path d="M38.2812 12.0312H40.4688V9.84375H42.6562V14.2188H38.2812V22.9688H44.8438V18.5938H42.6562V20.7812H40.4688V16.4062H44.8438V7.65625H38.2812V12.0312Z" fill="black"/>
<path d="M53.5938 7.65625H49.5239L47.0312 15.1353V18.5938H51.4062V22.9688H53.5938V18.5938H55.7812V16.4062H53.5938V7.65625ZM51.4062 16.4062H49.2188V15.4897L51.1011 9.84375H51.4062V16.4062Z" fill="black"/>
<path d="M60.1562 7.65625H57.9688V22.9688H60.1562V16.4062H62.3438V22.8714H64.5312V14.2188H60.1562V7.65625Z" fill="black"/>
<path d="M65.625 3.28125H38.3786C36.3092 1.85391 33.8953 1.09375 31.3644 1.09375H27.6981C21.5359 1.09375 16.4248 5.62297 15.482 11.5238C15.2009 11.8027 14.8838 12.0356 14.5141 12.1888C13.3536 12.67 12.0312 12.4086 11.1442 11.5205L9.95422 10.3294L3.76688 16.5167L4.96344 17.7133C5.84828 18.597 6.10969 19.915 5.62953 21.07C5.15047 22.2239 4.03375 22.9688 2.78578 22.9688H1.09375V31.7188H2.78578C4.03484 31.7188 5.15047 32.4636 5.62953 33.6164C6.10859 34.7725 5.84719 36.0905 4.96344 36.9742L3.76688 38.1708L9.95422 44.3581L11.1792 43.1331C11.4909 42.8214 11.8716 42.607 12.2752 42.4583C11.9678 43.062 11.6922 43.6833 11.4887 44.3373C11.8584 46.0064 12.4152 47.5978 13.125 49.1039V47.915C13.125 44.5484 14.8236 41.5155 17.5 39.7294V44.6983L22.0413 45.3469L20.4345 48.5614L28.4375 53.1344V61.6558C29.155 61.8341 29.8845 61.9752 30.625 62.0834V53.1344L38.628 48.5614L37.0212 45.3469L41.5625 44.6983V39.7294C44.2389 41.5155 45.9375 44.5484 45.9375 47.915V58.9039C46.6955 58.4347 47.4283 57.9305 48.125 57.3792V47.915C48.125 42.3839 44.3778 37.5845 39.0119 36.2436L34.8425 35.2012L34.3328 32.655C36.3847 31.5088 38.0023 29.6439 38.8128 27.3448H42.6562V29.0795C42.6562 30.5342 43.8408 31.7188 45.2966 31.7188C45.9933 31.7188 46.6736 31.4366 47.1636 30.9455L50.7653 27.3438H65.625C67.4341 27.3438 68.9062 25.8716 68.9062 24.0625V6.5625C68.9062 4.75344 67.4341 3.28125 65.625 3.28125ZM26.8548 8.86484L26.1614 9.21156C24.8675 9.85797 24.0636 11.1595 24.0625 12.6077C24.0625 12.9194 24.1117 13.2212 24.1839 13.5166L24.0844 13.5363C22.412 13.8709 21.0547 14.9636 20.3098 16.4062H19.8953C20.3787 11.4144 24.5098 7.65625 29.5323 7.65625C31.0603 7.65625 32.5544 8.03687 33.9073 8.72375V14.2188H27.86C27.4291 14.2188 27.0255 14.0514 26.7225 13.7473C26.4162 13.4433 26.25 13.0375 26.25 12.6077C26.2511 11.9941 26.5923 11.4428 27.1392 11.1694L27.8327 10.8227L26.8548 8.86484ZM26.4447 44.8941L25.5084 43.2556L27.4859 42.4648L26.4447 44.8941ZM29.5312 43.2447L31.2583 47.2741L29.5312 50.295L27.8042 47.273L29.5312 43.2447ZM32.6178 44.8941L31.5766 42.4648L33.5541 43.2556L32.6178 44.8941ZM24.4125 41.3383L22.447 37.8984L23.2848 37.6884C23.8164 38.0603 24.4606 38.2812 25.1562 38.2812H25.7972L27.5855 40.0695L24.4125 41.3383ZM19.752 25.1562H19.6875C18.4811 25.1562 17.5 24.1752 17.5 22.9688V20.7812C17.5 19.5748 18.4811 18.5938 19.6875 18.5938H19.7148C19.7083 18.6966 19.6875 18.795 19.6875 18.8989V24.0625C19.6875 24.4322 19.7116 24.7964 19.752 25.1562ZM17.5 26.7356V31.7188C17.5 33.8319 19.005 35.5994 21 36.0052L20.6686 36.0883C15.8966 36.027 12.0312 32.1311 12.0312 27.3438C12.0312 24.6444 13.2967 22.1353 15.3409 20.5012C15.3344 20.5953 15.3125 20.685 15.3125 20.7812V22.9688C15.3125 24.5809 16.1984 25.9766 17.5 26.7356ZM27.3438 36.0938H25.1562C24.5525 36.0938 24.0625 35.6027 24.0625 35C24.0625 34.3973 24.5525 33.9062 25.1562 33.9062H27.3438C27.9475 33.9062 28.4375 34.3973 28.4375 35C28.4375 35.6027 27.9475 36.0938 27.3438 36.0938ZM22.0763 33.9062H21.875C20.6686 33.9062 19.6875 32.9252 19.6875 31.7188V27.3438H20.2617C20.9366 29.2425 22.1736 30.8722 23.777 32.0327C22.9852 32.4023 22.3727 33.0772 22.0763 33.9062ZM27.6981 3.28125H31.3644C32.6802 3.28125 33.9577 3.53281 35.1509 4.01078C34.4575 4.56531 33.9992 5.38891 33.9303 6.32625C32.5369 5.77063 31.0461 5.46875 29.5312 5.46875C23.508 5.46875 18.5412 9.88094 17.7712 15.8014C17.5941 15.0423 17.5 14.2647 17.5 13.4805C17.5 7.85641 22.0752 3.28125 27.6981 3.28125ZM13.8491 40.0936C12.4589 39.9514 11.0458 40.378 9.96844 41.2792L6.84469 38.1555C8.08609 36.6603 8.40766 34.6008 7.65078 32.7775C6.89391 30.9597 5.21281 29.7347 3.28125 29.5542V25.1333C5.21281 24.9528 6.89391 23.7278 7.64969 21.9089C8.40547 20.0856 8.08391 18.0272 6.84359 16.532L9.97062 13.4061C11.4669 14.6442 13.5231 14.9647 15.342 14.2133C15.4055 15.2972 15.6034 16.3647 15.948 17.3961L15.9884 17.5175C12.2762 19.3342 9.84375 23.1558 9.84375 27.3438C9.84375 32.0009 12.775 35.9767 16.8842 37.5506C15.7281 38.2298 14.7066 39.0917 13.8491 40.0936ZM19.6875 38.6367C19.8713 38.5722 20.0605 38.5164 20.2508 38.4628L23.0005 43.2753L19.6875 42.8017V38.6367ZM24.3239 45.6728L24.3742 45.6805L26.5912 49.5611L23.3155 47.6886L24.3239 45.6728ZM35.747 47.6886L32.4713 49.5611L34.6883 45.6805L34.7386 45.6728L35.747 47.6886ZM39.375 42.8017L36.062 43.2753L38.8117 38.4628C39.0009 38.5175 39.1902 38.5722 39.375 38.6367V42.8017ZM36.6155 37.8984L34.65 41.3383L31.477 40.0695L34.2409 37.3056L36.6155 37.8984ZM32.7195 35.7339L29.5312 38.9222L28.6278 38.0187C29.8003 37.5178 30.625 36.3541 30.625 35C30.625 34.5997 30.543 34.2202 30.4106 33.8658C31.0505 33.8089 31.6717 33.6853 32.2744 33.5103L32.7195 35.7339ZM29.5312 31.7188C25.3105 31.7188 21.875 28.2844 21.875 24.0625V18.8989C21.875 17.3403 22.9852 15.9873 24.5131 15.6811L25.4231 15.4995C26.1067 16.077 26.9533 16.4062 27.8589 16.4062H33.9062V22.9688H25.1562V25.1562C25.1562 27.5691 27.1184 29.5312 29.5312 29.5312C31.9441 29.5312 33.9062 27.5691 33.9062 25.1562V24.0625C33.9062 25.6298 35.012 26.9391 36.4831 27.2628C35.2537 29.9403 32.5653 31.7188 29.5312 31.7188ZM31.7188 25.1562C31.7188 26.3627 30.7377 27.3438 29.5312 27.3438C28.3248 27.3438 27.3438 26.3627 27.3438 25.1562H31.7188ZM66.7188 24.0625C66.7188 24.6652 66.2288 25.1562 65.625 25.1562H49.8597L45.6159 29.3989C45.3578 29.6592 44.8438 29.4481 44.8438 29.0784V25.1562H37.1875C36.5838 25.1562 36.0938 24.6652 36.0938 24.0625V6.5625C36.0938 5.95984 36.5838 5.46875 37.1875 5.46875H65.625C66.2288 5.46875 66.7188 5.95984 66.7188 6.5625V24.0625Z" fill="#525457"/>
</svg>
