<svg width="71" height="71" viewBox="0 0 71 71" fill="none" xmlns="http://www.w3.org/2000/svg">
<path d="M29.9531 59.5823V51.3552L27.9274 50.6407C27.8586 50.4666 27.7865 50.2924 27.71 50.1182L28.6374 48.1779L22.8221 42.3626L20.8818 43.29C20.7087 43.2135 20.5345 43.1403 20.3592 43.0726L19.6448 41.0469H11.4177L10.7032 43.0726C10.5291 43.1414 10.3549 43.2135 10.1807 43.29L8.24044 42.3626L2.42509 48.1779L3.35253 50.1182C3.27598 50.2913 3.20277 50.4655 3.13509 50.6407L1.10938 51.3552V59.5823L3.13509 60.2968C3.20388 60.4709 3.27598 60.6451 3.35253 60.8193L2.42509 62.7596L8.24044 68.5749L10.1807 67.6475C10.3538 67.724 10.528 67.7972 10.7032 67.8649L11.4177 69.8906H19.6448L20.3592 67.8649C20.5334 67.7961 20.7076 67.724 20.8818 67.6475L22.8221 68.5749L28.6374 62.7596L27.71 60.8193C27.7865 60.6462 27.8597 60.472 27.9274 60.2968L29.9531 59.5823ZM15.5312 63.2344C11.2424 63.2344 7.76562 59.7576 7.76562 55.4688C7.76562 51.1799 11.2424 47.7031 15.5312 47.7031C19.8201 47.7031 23.2969 51.1799 23.2969 55.4688C23.2969 59.7576 19.8201 63.2344 15.5312 63.2344Z" fill="#FFC100"/>
<path d="M15.5312 51.0312C13.084 51.0312 11.0938 53.0215 11.0938 55.4688C11.0938 57.916 13.084 59.9062 15.5312 59.9062C17.9785 59.9062 19.9688 57.916 19.9688 55.4688C19.9688 53.0215 17.9785 51.0312 15.5312 51.0312ZM15.5312 57.6875C14.3076 57.6875 13.3125 56.6924 13.3125 55.4688C13.3125 54.2451 14.3076 53.25 15.5312 53.25C16.7549 53.25 17.75 54.2451 17.75 55.4688C17.75 56.6924 16.7549 57.6875 15.5312 57.6875Z" fill="black"/>
<path d="M15.5312 46.5938C10.6378 46.5938 6.65625 50.5753 6.65625 55.4688C6.65625 60.3622 10.6378 64.3438 15.5312 64.3438C20.4247 64.3438 24.4062 60.3622 24.4062 55.4688C24.4062 50.5753 20.4247 46.5938 15.5312 46.5938ZM15.5312 62.125C11.8603 62.125 8.875 59.1397 8.875 55.4688C8.875 51.7978 11.8603 48.8125 15.5312 48.8125C19.2022 48.8125 22.1875 51.7978 22.1875 55.4688C22.1875 59.1397 19.2022 62.125 15.5312 62.125Z" fill="black"/>
<path d="M25.5156 5.54688H45.4844V7.76562H25.5156V5.54688Z" fill="#525457"/>
<path d="M55.5664 52.1406H69.367L68.6881 50.5875C67.6708 48.2611 65.6772 46.2887 63.2344 44.9774V8.875C63.2344 7.04009 61.7412 5.54688 59.9063 5.54688H54.3594V7.76562H59.9063C60.5186 7.76562 61.0156 8.26262 61.0156 8.875V14.4219H9.98438V8.875C9.98438 8.26262 10.4814 7.76562 11.0938 7.76562H16.6406V5.54688H11.0938C9.25884 5.54688 7.76562 7.04009 7.76562 8.875V42.8385L8.24155 42.3626L9.98438 43.1968V16.6406H61.0156V44.0167C60.2945 43.7726 59.5524 43.5851 58.7969 43.4587V21.0781C58.7969 19.8545 57.8018 18.8594 56.5781 18.8594H14.4219C13.1982 18.8594 12.2031 19.8545 12.2031 21.0781V41.0469H14.4219V38.8281H21.0781V43.1968L22.821 42.3637L23.2969 42.8385V38.8281H29.9531V48.8125H28.3334L27.7089 50.1193C27.7854 50.2924 27.8586 50.4666 27.9263 50.6419L29.0335 51.0312H29.9531H32.1719H38.8281H41.0469H47.6199L47.9405 50.4777C49.7244 47.398 53.0348 45.4844 56.5781 45.4844C60.1559 45.4844 63.7902 47.3093 65.7427 49.9219H53.25V52.368L56.9564 61.0156H65.7427C63.7902 63.6282 60.1559 65.4531 56.5781 65.4531C53.0348 65.4531 49.7244 63.5395 47.9405 60.4598L47.6199 59.9062H29.0335L27.9263 60.2968C27.8575 60.4709 27.7854 60.6451 27.7089 60.8193L28.3334 62.125H46.3608C48.6039 65.563 52.4612 67.6719 56.5781 67.6719C61.7401 67.6719 66.8332 64.5934 68.6881 60.35L69.367 58.7969H58.4186L55.5664 52.1406ZM56.5781 27.7344H49.9219V21.0781H56.5781V27.7344ZM41.0469 29.9531H47.7031V36.6094H41.0469V29.9531ZM38.8281 36.6094H32.1719V29.9531H38.8281V36.6094ZM49.9219 29.9531H56.5781V36.6094H49.9219V29.9531ZM47.7031 21.0781V27.7344H41.0469V21.0781H47.7031ZM38.8281 21.0781V27.7344H32.1719V21.0781H38.8281ZM29.9531 21.0781V27.7344H23.2969V21.0781H29.9531ZM21.0781 21.0781V27.7344H14.4219V21.0781H21.0781ZM14.4219 36.6094V29.9531H21.0781V36.6094H14.4219ZM23.2969 36.6094V29.9531H29.9531V36.6094H23.2969ZM32.1719 48.8125V38.8281H38.8281V48.8125H32.1719ZM46.3608 48.8125H41.0469V38.8281H47.7031V47.1418C47.2161 47.661 46.7557 48.2079 46.3608 48.8125ZM49.9219 45.2791V38.8281H56.5781V43.2656C54.1786 43.2656 51.8766 44 49.9219 45.2791Z" fill="#525457"/>
<path d="M51.0312 12.2031H48.8125C46.9776 12.2031 45.4844 10.7099 45.4844 8.875V4.4375C45.4844 2.60259 46.9776 1.10938 48.8125 1.10938H51.0312C52.8662 1.10938 54.3594 2.60259 54.3594 4.4375V8.875C54.3594 10.7099 52.8662 12.2031 51.0312 12.2031Z" fill="#F0BC5E"/>
<path d="M22.1875 12.2031H19.9688C18.1338 12.2031 16.6406 10.7099 16.6406 8.875V4.4375C16.6406 2.60259 18.1338 1.10938 19.9688 1.10938H22.1875C24.0224 1.10938 25.5156 2.60259 25.5156 4.4375V8.875C25.5156 10.7099 24.0224 12.2031 22.1875 12.2031Z" fill="#FFC100"/>
<path d="M51.0312 12.2031H48.8125C46.9776 12.2031 45.4844 10.7099 45.4844 8.875V4.4375C45.4844 2.60259 46.9776 1.10938 48.8125 1.10938H51.0312C52.8662 1.10938 54.3594 2.60259 54.3594 4.4375V8.875C54.3594 10.7099 52.8662 12.2031 51.0312 12.2031Z" fill="#FFC100"/>
</svg>
