<svg width="71" height="71" viewBox="0 0 71 71" fill="none" xmlns="http://www.w3.org/2000/svg">
<path d="M65.4531 54.3594H27.7344V41.0469H65.4531V54.3594Z" fill="#FFC100"/>
<path d="M9.98438 26.625H18.8594V31.0625H9.98438V26.625Z" fill="#FFC100"/>
<path d="M66.5625 7.76562H8.875C7.04009 7.76562 5.54688 9.25884 5.54688 11.0938V43.2656H1.10938V52.1406H5.54688V59.9062C5.54688 61.7412 7.04009 63.2344 8.875 63.2344H66.5625C68.3974 63.2344 69.8906 61.7412 69.8906 59.9062V11.0938C69.8906 9.25884 68.3974 7.76562 66.5625 7.76562ZM8.875 9.98438H66.5625C67.1738 9.98438 67.6719 10.4825 67.6719 11.0938V21.0781H7.76562V11.0938C7.76562 10.4825 8.26373 9.98438 8.875 9.98438ZM3.32812 45.4844H17.9808L13.7807 40.7584L15.4392 39.2852L22.9219 47.7031L15.4392 56.1211L13.7807 54.6478L17.9808 49.9219H3.32812V45.4844ZM66.5625 61.0156H8.875C8.26373 61.0156 7.76562 60.5186 7.76562 59.9062V52.1406H13.0407L10.6489 54.832L15.6233 59.2539L25.8906 47.7031L15.6233 36.1523L10.6489 40.5743L13.0407 43.2656H7.76562V23.2969H67.6719V59.9062C67.6719 60.5186 67.1738 61.0156 66.5625 61.0156Z" fill="#525457"/>
<path d="M16.6406 12.2031H9.98438V18.8594H16.6406V12.2031ZM14.4219 16.6406H12.2031V14.4219H14.4219V16.6406Z" fill="#525457"/>
<path d="M25.5156 12.2031H18.8594V18.8594H25.5156V12.2031ZM23.2969 16.6406H21.0781V14.4219H23.2969V16.6406Z" fill="#525457"/>
<path d="M34.3906 12.2031H27.7344V18.8594H34.3906V12.2031ZM32.1719 16.6406H29.9531V14.4219H32.1719V16.6406Z" fill="#525457"/>
<path d="M63.2344 56.5781H65.4531V58.7969H63.2344V56.5781Z" fill="black"/>
<path d="M36.6094 56.5781H61.0156V58.7969H36.6094V56.5781Z" fill="#525457"/>
<path d="M32.1719 56.5781H34.3906V58.7969H32.1719V56.5781Z" fill="black"/>
<path d="M27.7344 56.5781H29.9531V58.7969H27.7344V56.5781Z" fill="black"/>
<path d="M52.1406 34.3906H65.4531V25.5156H52.1406V34.3906ZM54.3594 27.7344H63.2344V32.1719H54.3594V27.7344Z" fill="#525457"/>
<path d="M49.9219 25.5156H36.6094V34.3906H49.9219V25.5156ZM47.7031 32.1719H38.8281V27.7344H47.7031V32.1719Z" fill="#525457"/>
<path d="M34.3906 25.5156H21.0781V34.3906H34.3906V25.5156ZM32.1719 32.1719H23.2969V27.7344H32.1719V32.1719Z" fill="#525457"/>
<path d="M9.98438 25.5156H18.8594V27.7344H9.98438V25.5156Z" fill="#525457"/>
<path d="M9.98438 29.9531H18.8594V32.1719H9.98438V29.9531Z" fill="#525457"/>
<path d="M27.7344 36.6094H29.9531V38.8281H27.7344V36.6094Z" fill="black"/>
<path d="M32.1719 36.6094H65.4531V38.8281H32.1719V36.6094Z" fill="#525457"/>
</svg>
