<svg width="65" height="65" viewBox="0 0 65 65" fill="none" xmlns="http://www.w3.org/2000/svg">
<g clip-path="url(#clip0)">
<path d="M14.6756 23.0651C17.5707 23.0651 19.9177 20.7182 19.9177 17.8231C19.9177 14.928 17.5707 12.5811 14.6756 12.5811C11.7805 12.5811 9.43359 14.928 9.43359 17.8231C9.43359 20.7182 11.7805 23.0651 14.6756 23.0651Z" fill="#FFC100"/>
<path d="M19.5425 15.4824L18.1984 13.8721L12.6452 18.5006L11.2246 17.0811L9.74219 18.5637L12.5153 21.3377L19.5425 15.4824Z" fill="#333333"/>
<path d="M38.7901 14.6777H23.0645V16.7745H38.7901V14.6777Z" fill="#525457"/>
<path d="M40.8869 18.8711H23.0645V20.9679H40.8869V18.8711Z" fill="#525457"/>
<path d="M19.5425 25.9658L18.1984 24.3555L12.6452 28.984L11.2246 27.5645L9.74219 29.0471L12.5153 31.8211L19.5425 25.9658Z" fill="#333333"/>
<path d="M45.0804 25.1611H23.0645V27.2579H45.0804V25.1611Z" fill="#525457"/>
<path d="M27.258 29.3545H23.0645V31.4513H27.258V29.3545Z" fill="#525457"/>
<path d="M45.0792 29.3545H29.3535V31.4513H45.0792V29.3545Z" fill="#525457"/>
<path d="M19.5425 36.4492L18.1984 34.8389L12.6452 39.4674L11.2246 38.0479L9.74219 39.5305L12.5153 42.3045L19.5425 36.4492Z" fill="#333333"/>
<path d="M45.0804 35.6445H23.0645V37.7413H45.0804V35.6445Z" fill="#525457"/>
<path d="M38.7901 39.8389H23.0645V41.9356H38.7901V39.8389Z" fill="#525457"/>
<path d="M45.0802 39.8389H40.8867V41.9356H45.0802V39.8389Z" fill="#525457"/>
<path d="M45.0802 14.6777H40.8867V16.7745H45.0802V14.6777Z" fill="#525457"/>
<path d="M61.8545 48.2256H59.7577H57.661H55.5642H53.4674V5.24203C53.4674 2.35151 51.1159 0 48.2256 0H5.24203C2.35151 0 0 2.35151 0 5.24203C0 8.13255 2.35151 10.4841 5.24181 10.4841V65H49.2739V58.7095H53.4674V54.5159H55.5642H57.661H59.7577H61.8545C63.5885 54.5159 64.9995 53.1049 64.9995 51.3707C64.9995 49.6365 63.5885 48.2256 61.8545 48.2256ZM51.3707 5.24203V48.2259H49.2739V8.38707H48.2254C46.4914 8.38707 45.0804 6.97603 45.0804 5.24181C45.0804 3.50758 46.4914 2.09654 48.2254 2.09654C49.9594 2.09654 51.3707 3.50781 51.3707 5.24203ZM2.09677 5.24203C2.09677 3.50803 3.50781 2.09677 5.24181 2.09677H44.0592C43.3933 2.97528 42.9836 4.05733 42.9836 5.24203C42.9836 6.42673 43.3936 7.50855 44.0592 8.38729H5.24203C3.50803 8.38707 2.09677 6.97603 2.09677 5.24203ZM7.3388 62.903V10.4838H47.1774V48.2256H17.6527L8.21731 51.3709L17.6527 54.5162H47.1771V62.9032H7.3388V62.903ZM14.8473 51.3709L16.7741 50.7281V52.0123L14.8473 51.3709ZM51.3707 56.6127H49.2739V54.5159H51.3707V56.6127ZM53.4674 52.4192H18.8709V50.3224H53.4674V52.4192ZM57.661 52.4192H55.5642V50.3224H57.661V52.4192ZM61.8545 52.4192H59.7577V50.3224H61.8545C62.4331 50.3224 62.9028 50.7932 62.9028 51.3709C62.9028 51.9486 62.4333 52.4192 61.8545 52.4192Z" fill="#525457"/>
</g>
<defs>
<clipPath id="clip0">
<rect width="65" height="65" fill="white"/>
</clipPath>
</defs>
</svg>
