<svg width="70" height="70" viewBox="0 0 70 70" fill="none" xmlns="http://www.w3.org/2000/svg">
<path d="M22.9688 19.6875H38.2812V33.9062H22.9688V19.6875Z" fill="#FFC100"/>
<path d="M52.5 44.8438V43.75C52.5 41.3339 50.5411 39.375 48.125 39.375H19.6875L17.7188 36.75C16.893 35.6486 15.5958 35 14.2188 35H6.5625C4.14641 35 2.1875 36.9589 2.1875 39.375V44.8438H52.5Z" fill="#FFC100"/>
<path d="M16.4062 40.4688H14.2188V38.2812H16.4062V40.4688ZM12.0312 40.4688H9.84375V38.2812H12.0312V40.4688ZM7.65625 40.4688H5.46875V38.2812H7.65625V40.4688Z" fill="black"/>
<path d="M43.3125 35.875L42 34.125L45.208 31.7187L42 29.3125L43.3125 27.5625L48.8545 31.7187L43.3125 35.875Z" fill="#525457"/>
<path d="M22.9688 18.5938H38.2812V20.7812H22.9688V18.5938Z" fill="#525457"/>
<path d="M22.9688 22.9688H38.2812V25.1562H22.9688V22.9688Z" fill="#525457"/>
<path d="M22.9688 27.3438H38.2812V29.5312H22.9688V27.3438Z" fill="#525457"/>
<path d="M22.9688 31.7188H33.9062V33.9062H22.9688V31.7188Z" fill="#525457"/>
<path d="M36.0938 31.7188H38.2812V33.9062H36.0938V31.7188Z" fill="#525457"/>
<path d="M32.4176 62.0914L31.0176 60.4092L36.5716 55.7815L31.0176 51.1539L32.4176 49.4717L39.9885 55.7815L32.4176 62.0914Z" fill="#525457"/>
<path d="M22.2682 62.0914L14.6973 55.7815L22.2682 49.4717L23.6682 51.1539L18.1141 55.7815L23.6682 60.4092L22.2682 62.0914Z" fill="#525457"/>
<path d="M24.082 64.2607L28.4473 46.7638L30.5691 47.2931L26.2039 64.7901L24.082 64.2607Z" fill="#525457"/>
<path d="M60.1562 26.25V63.4375C60.1562 65.2466 58.6841 66.7188 56.875 66.7188C55.0659 66.7188 53.5938 65.2466 53.5938 63.4375V43.75C53.5938 40.7345 51.1405 38.2812 48.125 38.2812H20.2344L18.5938 36.0927C17.5667 34.7233 15.9305 33.9062 14.2188 33.9062H12.0312V16.4062H27.7966L29.9841 14.2188H41.5625V12.0312H29.0784L26.8909 14.2188H12.0312V7.65625H44.8755V5.46875H9.84375V33.9062H6.5625C3.54703 33.9062 1.09375 36.3595 1.09375 39.375V63.4375C1.09375 66.453 3.54703 68.9062 6.5625 68.9062H56.875C59.8905 68.9062 62.3438 66.453 62.3438 63.4375V26.25H60.1562ZM6.5625 66.7188C4.75344 66.7188 3.28125 65.2466 3.28125 63.4375V39.375C3.28125 37.5659 4.75344 36.0938 6.5625 36.0938H14.2188C15.2458 36.0938 16.228 36.5838 16.8438 37.4052L19.1406 40.4688H48.125C49.9341 40.4688 51.4062 41.9409 51.4062 43.75V63.4375C51.4062 64.668 51.8153 65.8044 52.5022 66.7188H6.5625Z" fill="#525457"/>
<path d="M18.5938 9.84375H20.7812V12.0312H18.5938V9.84375Z" fill="black"/>
<path d="M22.9688 9.84375H25.1562V12.0312H22.9688V9.84375Z" fill="black"/>
<path d="M14.2188 9.84375H16.4062V12.0312H14.2188V9.84375Z" fill="black"/>
<path d="M19.0303 18.8125L13.4883 22.9687L19.0303 27.125L20.3428 25.375L17.1348 22.9687L20.3428 20.5625L19.0303 18.8125Z" fill="#525457"/>
<path d="M54.6875 18.5938C52.8784 18.5938 51.4062 17.1216 51.4062 15.3125C51.4062 13.5034 52.8784 12.0312 54.6875 12.0312C56.4966 12.0312 57.9688 13.5034 57.9688 15.3125C57.9688 17.1216 56.4966 18.5938 54.6875 18.5938ZM54.6875 14.2188C54.0848 14.2188 53.5938 14.7088 53.5938 15.3125C53.5938 15.9162 54.0848 16.4062 54.6875 16.4062C55.2902 16.4062 55.7812 15.9162 55.7812 15.3125C55.7812 14.7088 55.2902 14.2188 54.6875 14.2188Z" fill="black"/>
<path d="M68.9062 11.177L66.2638 10.5175L67.6648 8.18125L61.8166 2.33406L59.4825 3.73516L58.823 1.09375H50.552L49.8925 3.73625L47.5584 2.33516L41.7091 8.18125L43.1102 10.5175L40.4688 11.177V19.448L43.1113 20.1075L41.7102 22.4438L47.5584 28.2909L49.8925 26.8898L50.552 29.5312H58.823L59.4825 26.8888L61.8166 28.2898L67.6648 22.4427L66.2638 20.1064L68.9062 19.448V11.177ZM54.6875 21.875C51.0628 21.875 48.125 18.9372 48.125 15.3125C48.125 11.6878 51.0628 8.75 54.6875 8.75C58.3122 8.75 61.25 11.6878 61.25 15.3125C61.25 18.9372 58.3122 21.875 54.6875 21.875Z" fill="#FFC100"/>
<path d="M54.6875 22.9688C50.4656 22.9688 47.0312 19.5333 47.0312 15.3125C47.0312 11.0917 50.4656 7.65625 54.6875 7.65625C58.9094 7.65625 62.3438 11.0917 62.3438 15.3125C62.3438 19.5333 58.9094 22.9688 54.6875 22.9688ZM54.6875 9.84375C51.672 9.84375 49.2188 12.297 49.2188 15.3125C49.2188 18.328 51.672 20.7812 54.6875 20.7812C57.703 20.7812 60.1562 18.328 60.1562 15.3125C60.1562 12.297 57.703 9.84375 54.6875 9.84375Z" fill="black"/>
</svg>
