<svg width="67" height="67" viewBox="0 0 67 67" fill="none" xmlns="http://www.w3.org/2000/svg">
<path d="M45.5625 53.9688H47.6562V56.0625H45.5625V53.9688Z" fill="#525457"/>
<path d="M49.75 53.9688H51.8438V56.0625H49.75V53.9688Z" fill="#525457"/>
<path d="M53.9375 53.9688H56.0312V56.0625H53.9375V53.9688Z" fill="#525457"/>
<path d="M41.375 53.9688H43.4688V56.0625H41.375V53.9688Z" fill="#525457"/>
<path d="M45.5636 10V14.1875H37.3027C37.6419 14.868 37.9319 15.5673 38.1842 16.2812H45.5636V20.4688H64.4074V10H45.5636ZM62.3136 18.375H47.6574V12.0938H62.3136V18.375Z" fill="#525457"/>
<path d="M53.9375 14.1875H56.0312V16.2812H53.9375V14.1875Z" fill="#525457"/>
<path d="M50 14.1875H52.0938V16.2812H50V14.1875Z" fill="#525457"/>
<path d="M58.125 14.1875H60.2188V16.2812H58.125V14.1875Z" fill="#525457"/>
<path d="M45.5625 26.75H40.4977L38.6468 27.3666C38.5149 27.866 38.3558 28.357 38.1841 28.8438H45.5625V33.0312H49.75V35.5249L37.9873 41.4062L49.75 47.2876V49.7812H37.1875V53.9688H35.0938V37.5161L33 39.6098V56.0625H37.1875V60.25H60.2188V49.7812H51.8438V47.2876L63.6064 41.4062L51.8438 35.5249V33.0312H64.4062V22.5625H45.5625V26.75ZM58.125 58.1562H39.2812V51.875H58.125V58.1562ZM50.7969 45.4702L42.6689 41.4062L50.7969 37.3423L58.9248 41.4062L50.7969 45.4702ZM47.6562 24.6562H62.3125V30.9375H47.6562V24.6562Z" fill="#525457"/>
<path d="M49.75 26.75H51.8438V28.8438H49.75V26.75Z" fill="#525457"/>
<path d="M53.9375 26.75H56.0312V28.8438H53.9375V26.75Z" fill="#525457"/>
<path d="M58.125 26.75H60.2188V28.8438H58.125V26.75Z" fill="#525457"/>
<path d="M47.6562 40.3594H49.75V42.4531H47.6562V40.3594Z" fill="#525457"/>
<path d="M51.8438 40.3594H53.9375V42.4531H51.8438V40.3594Z" fill="#525457"/>
<path d="M52 20H54V23H52V20Z" fill="#525457"/>
<path d="M40.1937 23.4615C39.7635 21.8273 39.1133 20.2612 38.256 18.7925L39.5436 16.2161L34.035 10.7074L31.4586 11.9951C29.9898 11.1377 28.4237 10.4876 26.7895 10.0573L25.8798 7.32812H18.09L17.1803 10.0563C15.5461 10.4865 13.98 11.1367 12.5112 11.994L9.93484 10.7064L4.42619 16.215L5.71384 18.7914C4.85645 20.2602 4.20634 21.8263 3.77608 23.4605L1.04688 24.3702V32.16L3.77503 33.0697C4.2053 34.7039 4.85541 36.27 5.7128 37.7388L4.42514 40.3152L9.9338 45.8238L12.5122 44.5351C12.8567 44.733 13.2199 44.9256 13.6083 45.1161V48.4462C13.9182 48.2672 14.2731 48.1562 14.6562 48.1562H29.3125C29.6957 48.1562 30.0505 48.2672 30.3594 48.4462V45.1161C30.7488 44.9256 31.1121 44.733 31.4555 44.5351L34.0339 45.8238L39.5426 40.3152L38.2549 37.7388C39.1123 36.27 39.7624 34.7039 40.1927 33.0697L42.9219 32.161V24.3712L40.1937 23.4615ZM21.9844 39.7812C15.6246 39.7812 10.4688 34.6254 10.4688 28.2656C10.4688 21.9059 15.6246 16.75 21.9844 16.75C28.3441 16.75 33.5 21.9059 33.5 28.2656C33.5 34.6254 28.3441 39.7812 21.9844 39.7812Z" fill="#FFC100"/>
<path d="M21.9844 34.5469C25.4485 34.5469 28.2656 31.7297 28.2656 28.2656C28.2656 24.8015 25.4485 21.9844 21.9844 21.9844C18.5203 21.9844 15.7031 24.8015 15.7031 28.2656C15.7031 31.7297 18.5203 34.5469 21.9844 34.5469ZM21.9844 24.0781C24.2938 24.0781 26.1719 25.9562 26.1719 28.2656C26.1719 30.575 24.2938 32.4531 21.9844 32.4531C19.675 32.4531 17.7969 30.575 17.7969 28.2656C17.7969 25.9562 19.675 24.0781 21.9844 24.0781Z" fill="#525457"/>
<path d="M21.9844 40.8281C28.9115 40.8281 34.5469 35.1928 34.5469 28.2656C34.5469 21.3385 28.9115 15.7031 21.9844 15.7031C15.0572 15.7031 9.42188 21.3385 9.42188 28.2656C9.42188 35.1928 15.0572 40.8281 21.9844 40.8281ZM21.9844 17.7969C27.7568 17.7969 32.4531 22.4932 32.4531 28.2656C32.4531 34.0381 27.7568 38.7344 21.9844 38.7344C16.2119 38.7344 11.5156 34.0381 11.5156 28.2656C11.5156 22.4932 16.2119 17.7969 21.9844 17.7969Z" fill="#525457"/>
<path d="M29.3125 47.1094H14.6562C12.9247 47.1094 11.5156 48.5185 11.5156 50.25C11.5156 51.613 12.394 52.7646 13.6094 53.198V53.3906C13.6094 58.0084 17.3666 61.7656 21.9844 61.7656C26.6021 61.7656 30.3594 58.0084 30.3594 53.3906V53.198C31.5748 52.7646 32.4531 51.613 32.4531 50.25C32.4531 48.5185 31.044 47.1094 29.3125 47.1094ZM21.9844 59.6719C18.5203 59.6719 15.7031 56.8547 15.7031 53.3906H28.2656C28.2656 56.8547 25.4485 59.6719 21.9844 59.6719ZM29.3125 51.2969H14.6562C14.0794 51.2969 13.6094 50.8268 13.6094 50.25C13.6094 49.6732 14.0794 49.2031 14.6562 49.2031H29.3125C29.8893 49.2031 30.3594 49.6732 30.3594 50.25C30.3594 50.8268 29.8893 51.2969 29.3125 51.2969Z" fill="#525457"/>
</svg>
