<svg width="62" height="62" viewBox="0 0 62 62" fill="none" xmlns="http://www.w3.org/2000/svg">
<path d="M52.3125 18.4062H47.4688V16.4688C47.4688 15.4002 46.5998 14.5312 45.5312 14.5312C44.4627 14.5312 43.5938 15.4002 43.5938 16.4688V18.4062H35.8438V13.5625C33.7067 13.5625 31.9688 11.8246 31.9688 9.6875C31.9688 7.55044 33.7067 5.8125 35.8438 5.8125V3.875C35.8438 2.27269 37.1477 0.96875 38.75 0.96875H52.3125C53.9148 0.96875 55.2188 2.27269 55.2188 3.875V15.5C55.2188 17.1023 53.9148 18.4062 52.3125 18.4062Z" fill="#FFC100"/>
<path d="M39.7188 24.2188C39.7188 22.0817 37.9808 20.3438 35.8438 20.3438C33.7067 20.3438 31.9688 22.0817 31.9688 24.2188H28.0938V19.375H26.1562C25.0877 19.375 24.2188 18.506 24.2188 17.4375C24.2188 16.369 25.0877 15.5 26.1562 15.5H28.0938V6.78125H25.4965C15.1774 6.78125 6.78125 15.1774 6.78125 25.4965C6.78125 31.1327 9.28353 36.4124 13.6458 39.9813L17.4375 43.0842V45.7105C16.3128 46.1115 15.5 47.1772 15.5 48.4385C15.5 49.7782 16.4155 50.8981 17.6506 51.2323C17.516 51.5666 17.4375 51.9298 17.4375 52.3125C17.4375 53.5932 18.2755 54.6704 19.4273 55.057C19.8284 58.4166 22.691 61.0312 26.1562 61.0312C29.6215 61.0312 32.4841 58.4166 32.8852 55.057C34.037 54.6704 34.875 53.5932 34.875 52.3125C34.875 51.9298 34.7965 51.5666 34.6619 51.2314C35.897 50.8962 36.8125 49.7773 36.8125 48.4375C36.8125 47.1762 35.9997 46.1106 34.875 45.7095V43.0832L38.6667 39.9803C43.029 36.4124 45.5312 31.1327 45.5312 25.4965V24.2188H39.7188ZM25.4965 8.71875H26.1562V13.5625C24.0192 13.5625 22.2812 15.3004 22.2812 17.4375C22.2812 19.5746 24.0192 21.3125 26.1562 21.3125V24.2188H22.2812C22.2812 22.0817 20.5433 20.3438 18.4062 20.3438C16.2692 20.3438 14.5312 22.0817 14.5312 24.2188H8.76719C9.42206 15.562 16.6751 8.71875 25.4965 8.71875ZM14.8723 38.4817C11.1319 35.4214 8.91734 30.9593 8.73231 26.1562H16.4688V24.2188C16.4688 23.1502 17.3377 22.2812 18.4062 22.2812C19.4748 22.2812 20.3438 23.1502 20.3438 24.2188V26.1562H26.1562V30.0312C24.0192 30.0312 22.2812 31.7692 22.2812 33.9062C22.2812 36.0433 24.0192 37.7812 26.1562 37.7812V45.5312H19.375V42.1658L14.8723 38.4817ZM26.1562 59.0938C23.8177 59.0938 21.8608 57.4265 21.4103 55.2188H30.9022C30.4517 57.4265 28.4948 59.0938 26.1562 59.0938ZM31.9688 53.2812H20.3438C19.809 53.2812 19.375 52.8463 19.375 52.3125C19.375 51.7787 19.809 51.3438 20.3438 51.3438H31.9688C32.5035 51.3438 32.9375 51.7787 32.9375 52.3125C32.9375 52.8463 32.5035 53.2812 31.9688 53.2812ZM33.9062 49.4062H31.9688H20.3438H18.4062C17.8715 49.4062 17.4375 48.9713 17.4375 48.4375C17.4375 47.9037 17.8715 47.4688 18.4062 47.4688H33.9062C34.441 47.4688 34.875 47.9037 34.875 48.4375C34.875 48.9713 34.441 49.4062 33.9062 49.4062ZM37.4402 38.4817L32.9375 42.1658V45.5312H28.0938V35.8438H26.1562C25.0877 35.8438 24.2188 34.9748 24.2188 33.9062C24.2188 32.8377 25.0877 31.9688 26.1562 31.9688H28.0938V26.1562H33.9062V24.2188C33.9062 23.1502 34.7752 22.2812 35.8438 22.2812C36.9123 22.2812 37.7812 23.1502 37.7812 24.2188V26.1562H43.5802C43.3952 30.9593 41.1806 35.4214 37.4402 38.4817Z" fill="#525457"/>
</svg>
