<svg width="54" height="54" viewBox="0 0 54 54" fill="none" xmlns="http://www.w3.org/2000/svg">
<path d="M53.1562 18.3159V12.0587L51.6156 11.5153C51.5632 11.3829 51.5084 11.2504 51.4502 11.1179L52.1556 9.6422L49.6901 7.17676L46.6636 9.33845C46.181 9.6827 45.6325 9.90967 45.0579 10.0278C46.8669 11.0369 48.0938 12.9674 48.0938 15.1873C48.0938 18.4493 45.4494 21.0936 42.1875 21.0936C38.9256 21.0936 36.2812 18.4493 36.2812 15.1873C36.2812 12.1878 38.518 9.7097 41.4146 9.33085L41.4315 9.33423C40.9953 9.02288 40.6215 8.63223 40.3312 8.18082L39.6562 8.28629V8.43732C39.6562 9.36966 38.9011 10.1248 37.9688 10.1248H32.4498L32.9257 11.1188C32.8674 11.2504 32.8117 11.3829 32.7603 11.5162L31.2188 12.0587V18.3159L32.7594 18.8593C32.8118 18.9918 32.8666 19.1243 32.9248 19.2567L32.2194 20.7324L36.6424 25.1554L38.1181 24.45C38.2497 24.5082 38.3822 24.5639 38.5155 24.6154L39.0589 26.1561H45.3161L45.8595 24.6154C45.992 24.5631 46.1244 24.5082 46.2569 24.45L47.7326 25.1554L52.1556 20.7324L51.4502 19.2567C51.5084 19.1251 51.5641 18.9926 51.6156 18.8593L53.1562 18.3159Z" fill="#FFC100"/>
<path d="M19.4062 21.0938H29.5312V32.0625H19.4062V21.0938Z" fill="#FFC100"/>
<path d="M49.7812 34.5938H4.21875V10.6734C4.74778 10.8607 5.31394 10.9688 5.90625 10.9688H36.9318C35.9977 12.1323 35.4375 13.6029 35.4375 15.1875C35.4375 18.9093 38.4657 21.9375 42.1875 21.9375C45.9093 21.9375 48.9375 18.9093 48.9375 15.1875C48.9375 13.2874 48.1359 11.5113 46.7809 10.2499C46.9058 10.1756 47.034 10.1098 47.1521 10.0246L52.9208 5.90625L47.1538 1.78706C46.2907 1.17028 45.2731 0.84375 44.21 0.84375H43.875C42.4693 0.84375 41.1961 1.42087 40.2781 2.349C39.8832 1.46391 38.999 0.84375 37.9688 0.84375H5.90625C3.11428 0.84375 0.84375 3.11428 0.84375 5.90625C0.84375 7.40053 1.4985 8.74125 2.53125 9.66938V38.8125C2.53125 41.1387 4.42378 43.0312 6.75 43.0312H20.2188C20.077 44.377 19.3776 45.5971 18.2815 46.4062H16.0312C13.705 46.4062 11.8125 48.2988 11.8125 50.625C11.8125 52.0206 12.9482 53.1562 14.3438 53.1562H39.6562C41.0518 53.1562 42.1875 52.0206 42.1875 50.625C42.1875 48.2988 40.295 46.4062 37.9688 46.4062H35.7193C34.6233 45.5971 33.9238 44.377 33.7821 43.0312H47.25C49.5762 43.0312 51.4688 41.1387 51.4688 38.8125V21.4186L49.7812 23.1061V34.5938ZM30.375 9.28125H28.6875V2.53125H30.375V9.28125ZM32.0625 2.53125H33.75V9.28125H32.0625V2.53125ZM47.25 15.1875C47.25 17.9795 44.9795 20.25 42.1875 20.25C39.3955 20.25 37.125 17.9795 37.125 15.1875C37.125 12.7482 38.8851 10.6743 41.2535 10.2288C42.0196 10.6954 42.9148 10.9688 43.875 10.9688H44.21C44.4378 10.9688 44.6622 10.9468 44.885 10.9164C46.348 11.842 47.25 13.4435 47.25 15.1875ZM43.875 2.53125H44.21C44.9187 2.53125 45.5971 2.74894 46.1717 3.15984L50.0167 5.90625L46.1708 8.65266C45.5971 9.06356 44.9187 9.28125 44.21 9.28125H43.875C42.0137 9.28125 40.5 7.76756 40.5 5.90625C40.5 4.04494 42.0137 2.53125 43.875 2.53125ZM38.8125 3.375V8.4375C38.8125 8.90325 38.4345 9.28125 37.9688 9.28125H35.4375V2.53125H37.9688C38.4345 2.53125 38.8125 2.90925 38.8125 3.375ZM5.90625 2.53125H27V9.28125H5.90625C4.04494 9.28125 2.53125 7.76756 2.53125 5.90625C2.53125 4.04494 4.04494 2.53125 5.90625 2.53125ZM40.5 50.625C40.5 51.0908 40.122 51.4688 39.6562 51.4688H14.3438C13.878 51.4688 13.5 51.0908 13.5 50.625C13.5 49.2294 14.6357 48.0938 16.0312 48.0938H37.9688C39.3643 48.0938 40.5 49.2294 40.5 50.625ZM33.3526 46.4062H20.6474C21.3713 45.4317 21.8101 44.2665 21.9063 43.0312H32.0946C32.1907 44.2665 32.6295 45.4317 33.3526 46.4062ZM47.25 41.3438H6.75C5.35444 41.3438 4.21875 40.2081 4.21875 38.8125V36.2812H49.7812V38.8125C49.7812 40.2081 48.6456 41.3438 47.25 41.3438Z" fill="#525457"/>
<path d="M38.8125 15.1875C38.8125 17.0488 40.3262 18.5625 42.1875 18.5625C44.0488 18.5625 45.5625 17.0488 45.5625 15.1875C45.5625 13.3262 44.0488 11.8125 42.1875 11.8125C40.3262 11.8125 38.8125 13.3262 38.8125 15.1875ZM43.875 15.1875C43.875 16.1182 43.1182 16.875 42.1875 16.875C41.2568 16.875 40.5 16.1182 40.5 15.1875C40.5 14.2568 41.2568 13.5 42.1875 13.5C43.1182 13.5 43.875 14.2568 43.875 15.1875Z" fill="#525457"/>
<path d="M29.5312 12.6562H5.90625V19.4062H29.5312V12.6562ZM27.8438 17.7188H7.59375V14.3438H27.8438V17.7188Z" fill="#525457"/>
<path d="M5.90625 32.9062H17.7188V21.0938H5.90625V32.9062ZM7.59375 22.7812H16.0312V31.2188H7.59375V22.7812Z" fill="#525457"/>
<path d="M19.4062 21.0938H21.0938V22.7812H19.4062V21.0938Z" fill="#525457"/>
<path d="M22.7812 21.0938H29.5312V22.7812H22.7812V21.0938Z" fill="#525457"/>
<path d="M19.4062 24.4688H29.5312V26.1562H19.4062V24.4688Z" fill="#525457"/>
<path d="M19.4062 27.8438H29.5312V29.5312H19.4062V27.8438Z" fill="#525457"/>
<path d="M19.4062 31.2188H29.5312V32.9062H19.4062V31.2188Z" fill="#525457"/>
</svg>
