<svg width="63" height="63" viewBox="0 0 63 63" fill="none" xmlns="http://www.w3.org/2000/svg">
<path d="M16.25 48.75H6.09375V41.6406H16.25V48.75Z" fill="#FFC100"/>
<path d="M36.5625 20.3125V17.2656H12.1875V20.3125V30.4688V37.5781H32.5V30.4688H52.8125V20.3125H36.5625Z" fill="#FFC100"/>
<path d="M10.1562 44.6875H12.1875V48.75H10.1562V44.6875Z" fill="#525457"/>
<path d="M12.1875 56.875H14.2188V58.9062H12.1875V56.875Z" fill="#525457"/>
<path d="M16.25 56.875H18.2812V58.9062H16.25V56.875Z" fill="#525457"/>
<path d="M62.9688 32.5H56.875V19.5884L62.7707 10.1562H58.9062V0H52.8125V4.0625H8.125V40.625H3.04688C1.36703 40.625 0 41.992 0 43.6719V59.9219C0 61.6017 1.36703 62.9688 3.04688 62.9688H19.2969C20.9767 62.9688 22.3438 61.6017 22.3438 59.9219V58.9062H56.875V42.6562H62.9688V32.5ZM54.8438 2.03125H56.875V12.1875H59.1043L55.8594 17.3804L52.6145 12.1875H54.8438V2.03125ZM20.3125 59.9219C20.3125 60.4825 19.8575 60.9375 19.2969 60.9375H3.04688C2.48625 60.9375 2.03125 60.4825 2.03125 59.9219V43.6719C2.03125 43.1113 2.48625 42.6562 3.04688 42.6562H19.2969C19.8575 42.6562 20.3125 43.1113 20.3125 43.6719V59.9219ZM54.8438 56.875H22.3438V43.6719C22.3438 41.992 20.9767 40.625 19.2969 40.625H10.1562V6.09375H52.8125V10.1562H48.948L54.8438 19.5884V32.5H36.5625V42.6562H54.8438V56.875ZM60.9375 40.625H38.5938V34.5312H60.9375V40.625Z" fill="#525457"/>
<path d="M12.1875 10H36.5625V12.0312H12.1875V10Z" fill="#525457"/>
<path d="M12.1875 20.3125H14.2188V22.3438H12.1875V20.3125Z" fill="#525457"/>
<path d="M16.25 20.3125H52.8125V22.3438H16.25V20.3125Z" fill="#525457"/>
<path d="M12.1875 24.375H52.8125V26.4062H12.1875V24.375Z" fill="#525457"/>
<path d="M12.1875 28.4375H16.25V30.4688H12.1875V28.4375Z" fill="#525457"/>
<path d="M18.2812 28.4375H40.625V30.4688H18.2812V28.4375Z" fill="#525457"/>
<path d="M42.6562 28.4375H52.8125V30.4688H42.6562V28.4375Z" fill="#525457"/>
<path d="M12.1875 32.5H32.5V34.5312H12.1875V32.5Z" fill="#525457"/>
<path d="M12.1875 36.5625H32.5V38.5938H12.1875V36.5625Z" fill="#525457"/>
</svg>
